<?xml version="1.0" encoding="utf-8"?>
<!-- Generator: Adobe Illustrator 23.0.3, SVG Export Plug-In . SVG Version: 6.00 Build 0)  -->
<svg version="1.1" id="Calque_1" xmlns="http://www.w3.org/2000/svg" xmlns:xlink="http://www.w3.org/1999/xlink" x="0px" y="0px"
	 viewBox="0 0 250 154" style="enable-background:new 0 0 250 154;" xml:space="preserve">
<style type="text/css">
	.st0{fill:none;}
	.st1{fill:#22A8C6;}
	.st2{fill:#FFFFFF;}
</style>
<title>Logo_cine35_svg</title>
<rect x="2.1" y="91.7" class="st0" width="1" height="7.7"/>
<rect x="2.9" y="95.3" class="st1" width="0.2" height="0.8"/>
<rect x="2.6" y="95.3" class="st1" width="0.2" height="0.8"/>
<rect x="2.2" y="95.3" class="st1" width="0.2" height="0.8"/>
<path class="st2" d="M61.1,95.7c-2.7,0.1-5.3-0.5-7.7-1.8c-1.9-1.2-3.3-3-4-5.1c-0.8-2.4-1.2-5-1.1-7.6V65.6
	c-0.1-2.6,0.3-5.3,1.1-7.8c0.7-2.1,2.1-3.9,4-5c2.3-1.3,5-1.9,7.7-1.8c2.5-0.1,5.1,0.4,7.4,1.6c1.7,1,3.1,2.5,3.8,4.4
	c0.8,2.1,1.1,4.4,1.1,6.6v3.7h-8.6v-4.1c0-0.9,0-1.9-0.2-2.8c-0.1-0.8-0.4-1.5-0.9-2.2c-0.7-0.6-1.6-0.9-2.5-0.8
	c-0.9-0.1-1.9,0.2-2.6,0.9c-0.6,0.6-0.9,1.4-1,2.2c-0.2,1-0.2,2-0.2,3v19.8c0,1.1,0.1,2.1,0.3,3.2c0.1,0.8,0.5,1.5,1.1,2.1
	c0.7,0.5,1.5,0.8,2.4,0.7c0.9,0.1,1.8-0.2,2.5-0.8c0.5-0.6,0.8-1.4,0.9-2.2c0.1-1,0.2-2,0.2-3V79h8.6v3.6c0,2.3-0.3,4.6-1.1,6.8
	c-0.7,1.9-2,3.6-3.7,4.6C66.3,95.3,63.7,95.9,61.1,95.7z"/>
<path class="st2" d="M78.9,95.1V51.5h8.8v43.6H78.9z"/>
<path class="st2" d="M94.4,95.1V51.5h6.2l9.7,22.7V51.5h7.3v43.6h-5.9L102,71v24.1H94.4z"/>
<path class="st2" d="M124.2,95.1V51.5h19v6.1h-10.1v11.6h7.8v6.2h-7.8v13.7h10.2v6L124.2,95.1z"/>
<path class="st2" d="M158.3,95.9c-2.4,0.1-4.8-0.4-6.9-1.6c-1.7-1.1-3-2.7-3.7-4.6c-0.8-2.2-1.2-4.5-1.1-6.9v-1.6h8.3v1.4
	c0,1.2,0.1,2.3,0.4,3.5c0.1,0.8,0.5,1.5,1.1,2.1c0.6,0.5,1.4,0.7,2.1,0.7c0.8,0.1,1.6-0.2,2.2-0.7c0.5-0.6,0.9-1.3,1-2.1
	c0.2-1.1,0.3-2.3,0.3-3.4c0.1-1.8-0.3-3.5-1-5.1c-0.6-1.2-1.9-1.8-3.9-1.9h-1.4v-6.1h1.3c1.9,0,3.3-0.5,4-1.6
	c0.8-1.5,1.2-3.2,1.1-4.9c0.1-1.4-0.2-2.7-0.8-4c-0.6-1-1.7-1.6-2.8-1.4c-1.2-0.1-2.3,0.5-2.7,1.6c-0.5,1.3-0.7,2.7-0.7,4.2v1.9
	h-8.3v-2.4c-0.1-2.2,0.4-4.5,1.4-6.5c0.9-1.7,2.3-3.2,4-4.1c2-1,4.1-1.5,6.3-1.4c2.2-0.1,4.4,0.4,6.4,1.3c1.7,0.9,3.1,2.2,4,3.9
	c0.9,2,1.4,4.2,1.3,6.4c0.1,2.2-0.5,4.4-1.6,6.3c-0.9,1.5-2.2,2.7-3.9,3.2c1.1,0.4,2.1,1,2.9,1.8c0.9,0.9,1.6,2.1,1.9,3.3
	c0.5,1.7,0.7,3.4,0.7,5.2c0,2.4-0.3,4.8-1.1,7c-0.7,1.9-2,3.6-3.7,4.8C163.1,95.4,160.7,96,158.3,95.9z"/>
<path class="st2" d="M185.4,95.9c-3.1,0-5.4-0.6-7-1.7c-1.6-1.1-2.8-2.8-3.3-4.7c-0.6-2.3-0.9-4.7-0.9-7.1h8c0,1.3,0.1,2.7,0.3,4
	c0.1,0.9,0.5,1.7,1.1,2.4c0.6,0.6,1.5,0.9,2.3,0.8c0.9,0,1.8-0.4,2.3-1.2c0.5-1,0.8-2.1,0.9-3.2c0.1-1.4,0.2-3.1,0.2-5
	c0-1.4-0.1-2.7-0.3-4.1c-0.1-1-0.4-2-1-2.8c-0.6-0.7-1.5-1.1-2.4-1c-0.9,0-1.8,0.3-2.4,1c-0.7,0.8-1.2,1.8-1.4,2.9h-7.1l0.6-24.8h20
	v7.2H182l-0.5,9.6c0.6-0.7,1.3-1.1,2.2-1.4c1.1-0.4,2.2-0.6,3.3-0.7c2-0.3,4,0.2,5.6,1.3c1.6,1.2,2.7,2.9,3.3,4.8
	c0.8,2.5,1.1,5.1,1.1,7.7c0,2.1-0.1,4.3-0.4,6.4c-0.2,1.8-0.8,3.5-1.7,5.1c-0.8,1.4-2.1,2.6-3.6,3.3C189.5,95.5,187.4,96,185.4,95.9
	z"/>
<path class="st2" d="M216.3,95.7h-3.6v-3.5h3.6V95.7z"/>
<path class="st2" d="M216.5,85.4c0,0.9-0.2,1.8-0.6,2.6c-0.4,0.7-1,1.2-1.7,1.6c-0.8,0.4-1.7,0.6-2.6,0.5h-4.8
	c-0.9,0-1.8-0.2-2.7-0.5c-0.7-0.3-1.3-0.9-1.7-1.6c-0.4-0.8-0.6-1.7-0.6-2.6c0-0.9,0.1-1.8,0.5-2.6c0.3-0.7,0.8-1.2,1.4-1.5
	c0.7-0.4,1.6-0.5,2.4-0.5h1.4v3.5h-1.4c-0.3,0-0.7,0-1,0.1c-0.2,0.1-0.4,0.2-0.5,0.4c-0.1,0.2-0.2,0.4-0.1,0.6
	c0,0.2,0.1,0.4,0.2,0.6c0.2,0.2,0.4,0.3,0.6,0.3c0.4,0.1,0.8,0.1,1.2,0.1h5.6c0.5,0,1.1,0,1.6-0.3c0.3-0.2,0.4-0.5,0.4-0.8
	c0-0.5-0.3-0.9-0.7-0.9c-0.3-0.1-0.6-0.1-0.9-0.1h-1.7v-3.5h1.6c0.8,0,1.7,0.2,2.4,0.5c0.7,0.3,1.2,0.9,1.5,1.6
	C216.4,83.7,216.6,84.6,216.5,85.4z"/>
<path class="st2" d="M216.5,74.2c0,0.9-0.2,1.8-0.6,2.6c-0.3,0.7-0.9,1.3-1.6,1.6c-0.8,0.4-1.7,0.6-2.6,0.6h-5.1
	c-0.9,0-1.8-0.2-2.6-0.6c-0.7-0.4-1.3-0.9-1.6-1.6c-0.7-1.7-0.7-3.6,0-5.2c0.4-0.7,0.9-1.3,1.6-1.7c0.8-0.4,1.7-0.6,2.6-0.6h5.1
	c0.9,0,1.8,0.2,2.6,0.6c0.7,0.4,1.3,0.9,1.6,1.7C216.4,72.4,216.6,73.3,216.5,74.2z M214,74.2c0-0.3-0.1-0.5-0.3-0.7
	c-0.2-0.2-0.4-0.3-0.7-0.3c-0.3-0.1-0.7-0.1-1.1-0.1h-5.6c-0.4,0-0.7,0-1.1,0.1c-0.3,0-0.5,0.1-0.7,0.3c-0.2,0.2-0.3,0.4-0.3,0.7
	c0,0.3,0.1,0.5,0.3,0.7c0.2,0.2,0.4,0.3,0.7,0.3c0.4,0.1,0.7,0.1,1.1,0.1h5.6c0.4,0,0.7,0,1.1-0.1c0.3,0,0.5-0.2,0.7-0.3
	C213.9,74.7,214,74.4,214,74.2L214,74.2z"/>
<path class="st2" d="M216.3,67.1h-14.2v-3.6h1.2c-0.5-0.4-0.9-1-1.1-1.6c-0.2-0.6-0.3-1.1-0.3-1.7c0-0.5,0.1-1,0.4-1.5
	c0.3-0.4,0.8-0.8,1.3-0.9c-0.6-0.5-1-1.1-1.3-1.7c-0.3-0.6-0.4-1.2-0.4-1.9c0-0.5,0.1-1,0.4-1.4c0.3-0.4,0.7-0.8,1.2-1
	c0.6-0.2,1.2-0.4,1.9-0.3h11.1V55h-10.7c-0.3,0-0.7,0-1,0.2c-0.2,0.2-0.3,0.4-0.3,0.7c0,0.2,0.1,0.5,0.2,0.7
	c0.1,0.3,0.3,0.5,0.5,0.8h11.3V61h-10.7c-0.4,0-0.7,0-1,0.3c-0.2,0.2-0.3,0.4-0.3,0.7c0,0.2,0.1,0.5,0.2,0.7
	c0.1,0.3,0.3,0.5,0.5,0.8h11.3L216.3,67.1z"/>
<path class="st2" d="M146.1,102c0.1,1.9-0.5,3.8-1.6,5.4c-0.3,0.4-0.7,0.8-1.1,1.1c-0.2,0.2-0.5,0.3-0.7,0.4
	c-0.2,0.1-0.5,0.2-0.8,0.2l-2.6,0.6l-10.5,2.4l-21,4.7l-42.1,9.4L44.5,131c-2.2,0.4-4.6,0.2-6.7-0.5c-1.1-0.4-2.2-1-3.1-1.7
	c-1-0.8-1.8-1.7-2.5-2.8c-0.7-1-1.1-2.2-1.4-3.4c-0.1-0.6-0.2-1.2-0.3-1.8c0-0.3,0-0.6,0-0.9v-0.7l-0.1-5.4l-0.6-43.1l-0.4-21.6
	l-0.5-21.6l-0.1-5.4c0-0.2,0-0.6,0-0.9s0-0.7,0.1-1c0.1-0.7,0.2-1.4,0.4-2.1c0.4-1.5,1.1-2.8,2-4c1.8-2.3,4.4-3.9,7.3-4.5
	c1.3-0.3,2.7-0.4,4-0.3c0.6,0.1,1.3,0.1,1.9,0.3l0.9,0.2l0.4,0.1l0.3,0.1l10.4,2.9l10.4,3l20.6,6.3c6.9,2.2,13.7,4.3,20.6,6.5
	s13.7,4.5,20.5,6.8l10.2,3.6l2.5,0.9l0.6,0.2l0.3,0.1l0.4,0.2c0.5,0.2,1,0.6,1.4,1c0.7,0.8,1.2,1.7,1.5,2.7c0.3,0.9,0.4,1.9,0.4,2.8
	l-0.9,0.1c-0.3-1.6-1.1-3.1-2.3-4.2c-0.2-0.2-0.5-0.4-0.9-0.4l-1.2-0.2l-2.6-0.4l-10.6-2.1c-7-1.5-14.1-3-21.1-4.6s-14-3.3-21-4.9
	l-20.9-5.2L54,22.4l-10.4-2.8c-2.5-0.8-4.1-0.2-4.8,0.6c-0.2,0.2-0.4,0.5-0.4,0.8c-0.1,0.2-0.1,0.4-0.2,0.5c0,0.1,0,0.2,0,0.3
	s0,0.2,0,0.4l-0.1,5.4l-0.5,21.5l-0.4,21.6l-0.6,43.1l-0.1,5.4v0.7c0,0.2,0,0.3,0,0.5c0,0.9,0.2,1.7,0.7,2.5c1.1,2,3.7,3.1,6.5,2.6
	l21.1-3.9l42.4-7.8l21.2-3.8l10.6-1.9l2.7-0.5c0.2,0,0.4-0.1,0.6-0.1c0.2-0.1,0.3-0.1,0.5-0.2c0.3-0.2,0.6-0.5,0.9-0.8
	c1-1.4,1.6-3,1.6-4.7L146.1,102z"/>
<path class="st2" d="M84.6,145.3c1.2-0.6,2.4-1.4,3.7-2.1s2.5-1.4,3.8-2s2.6-1.3,3.8-1.9l3.9-1.8c5.2-2.3,10.6-4.3,16.1-5.9
	c5.5-1.7,11.1-3,16.7-4.1c2.8-0.5,5.6-1.1,8.5-1.4l4.3-0.6c1.4-0.2,2.9-0.3,4.3-0.4l4.3-0.4l4.1-0.4c1.4-0.2,2.8-0.3,4.1-0.5
	l4.1-0.7l2-0.3l2-0.4c1.3-0.3,2.7-0.6,4-0.8l4-1l2-0.4l2-0.6c2.6-0.7,5.2-1.6,7.8-2.4l3.8-1.5l3.8-1.6l3.7-1.8
	c1.2-0.7,2.4-1.3,3.6-2c2.4-1.4,4.7-3,6.9-4.8l0.6,0.4c-1.5,2.6-3.3,4.9-5.4,6.9c-1,1.1-2.2,2-3.3,3s-2.3,1.8-3.5,2.7
	s-2.5,1.6-3.7,2.4l-3.9,2.1c-1.3,0.6-2.7,1.2-4,1.8s-2.8,1.1-4.1,1.6l-2.1,0.7l-2.1,0.6c-1.4,0.4-2.8,0.8-4.3,1.1s-2.9,0.5-4.3,0.8
	l-2.2,0.3l-2.2,0.2l-4.4,0.4c-1.4,0.1-2.9,0.1-4.4,0.1l-8.5,0.2c-1.4,0.1-2.8,0-4.2,0.2l-4.2,0.3c-2.8,0.1-5.6,0.6-8.3,0.8
	c-5.6,0.7-11.1,1.6-16.5,2.9c-5.5,1.2-10.9,2.7-16.2,4.5l-4,1.4c-1.3,0.5-2.6,1-3.9,1.6s-2.6,1.1-3.9,1.7s-2.5,1.2-3.9,1.8
	L84.6,145.3z"/>
</svg>
